<?xml version="1.0" encoding="UTF-8" standalone="no"?>
<svg
   xmlns:dc="http://purl.org/dc/elements/1.1/"
   xmlns:cc="http://creativecommons.org/ns#"
   xmlns:rdf="http://www.w3.org/1999/02/22-rdf-syntax-ns#"
   xmlns:svg="http://www.w3.org/2000/svg"
   xmlns="http://www.w3.org/2000/svg"
   xmlns:sodipodi="http://sodipodi.sourceforge.net/DTD/sodipodi-0.dtd"
   xmlns:inkscape="http://www.inkscape.org/namespaces/inkscape"
   width="33cm"
   height="21cm"
   viewBox="37 175 653 418"
   id="svg2"
   version="1.1"
   inkscape:version="0.48.1 r9760"
   sodipodi:docname="fixation.svg"
   inkscape:export-filename="/home/bram/School/Masterproef/Thesis/img/fixation.png"
   inkscape:export-xdpi="90"
   inkscape:export-ydpi="90">
  <metadata
     id="metadata296">
    <rdf:RDF>
      <cc:Work
         rdf:about="">
        <dc:format>image/svg+xml</dc:format>
        <dc:type
           rdf:resource="http://purl.org/dc/dcmitype/StillImage" />
        <dc:title></dc:title>
      </cc:Work>
    </rdf:RDF>
  </metadata>
  <defs
     id="defs294" />
  <sodipodi:namedview
     pagecolor="#ffffff"
     bordercolor="#666666"
     borderopacity="1"
     objecttolerance="10"
     gridtolerance="10"
     guidetolerance="10"
     inkscape:pageopacity="0"
     inkscape:pageshadow="2"
     inkscape:window-width="1223"
     inkscape:window-height="776"
     id="namedview292"
     showgrid="false"
     inkscape:zoom="0.40720635"
     inkscape:cx="584.64569"
     inkscape:cy="372.04724"
     inkscape:window-x="57"
     inkscape:window-y="24"
     inkscape:window-maximized="1"
     inkscape:current-layer="svg2" />
  <g
     id="g4">
    <path
       style="fill: #b7b79d"
       d="M 37.8968 267.297 L 135.228,267.297 L 135.228,285.285 L 37.8968,285.285 L 37.8968,267.297z"
       id="path6" />
    <path
       style="fill: none; fill-opacity:0; stroke-width: 0.02; stroke: #494936"
       d="M 37.8968 267.297 L 135.228,267.297 L 135.228,285.285 L 37.8968,285.285 L 37.8968,267.297"
       id="path8" />
    <path
       style="fill: #c9c9b6"
       d="M 37.8968 267.297 L 48.2173,257.513 L 145.549,257.513 L 135.228,267.297 L 37.8968,267.297z"
       id="path10" />
    <path
       style="fill: none; fill-opacity:0; stroke-width: 0.02; stroke: #494936"
       d="M 37.8968 267.297 L 48.2173,257.513 L 145.549,257.513 L 135.228,267.297 L 37.8968,267.297"
       id="path12" />
    <path
       style="fill: none; fill-opacity:0; stroke-width: 2.12; stroke: #000000"
       d="M 129.784 275.486 L 106.429,275.486"
       id="path14" />
    <path
       style="fill: #7a7a5a"
       d="M 135.228 285.285 L 145.549,274.934 L 145.549,257.513 L 135.228,267.297 L 135.228,285.285z"
       id="path16" />
    <path
       style="fill: none; fill-opacity:0; stroke-width: 0.02; stroke: #494936"
       d="M 135.228 285.285 L 145.549,274.934 L 145.549,257.513 L 135.228,267.297 L 135.228,285.285"
       id="path18" />
    <path
       style="fill: #c9c9b6"
       d="M 38.4489 296.694 L 49.3061,283.092 L 124.356,283.092 L 113.499,296.694 L 38.4489,296.694z"
       id="path20" />
    <path
       style="fill: none; fill-opacity:0; stroke-width: 0.02; stroke: #494936"
       d="M 38.4489 296.694 L 49.3061,283.092 L 124.356,283.092 L 113.499,296.694 L 38.4489,296.694"
       id="path22" />
    <path
       style="fill: #7a7a5a"
       d="M 113.499 299.408 L 124.356,287.999 L 124.356,283.092 L 113.499,296.694 L 113.499,299.408z"
       id="path24" />
    <path
       style="fill: none; fill-opacity:0; stroke-width: 0.02; stroke: #494936"
       d="M 113.499 299.408 L 124.356,287.999 L 124.356,283.092 L 113.499,296.694 L 113.499,299.408"
       id="path26" />
    <path
       style="fill: #b7b79d"
       d="M 38.4489 296.694 L 113.499,296.694 L 113.499,299.408 L 38.4489,299.408 L 38.4489,296.694z"
       id="path28" />
    <path
       style="fill: none; fill-opacity:0; stroke-width: 0.02; stroke: #494936"
       d="M 38.4489 296.694 L 113.499,296.694 L 113.499,299.408 L 38.4489,299.408 L 38.4489,296.694"
       id="path30" />
    <path
       style="fill: #000000"
       d="M 52.5724 265.134 L 60.746,257.513 L 129.784,257.513 L 122.194,265.134 L 52.5724,265.134z"
       id="path32" />
    <path
       style="fill: none; fill-opacity:0; stroke-width: 0.02; stroke: #000000"
       d="M 52.5724 265.134 L 60.746,257.513 L 129.784,257.513 L 122.194,265.134 L 52.5724,265.134"
       id="path34" />
    <path
       style="fill: #c9c9b6"
       d="M 52.0204 209.069 L 59.6572,202 L 128.726,202 L 121.089,209.069 L 52.0204,209.069z"
       id="path36" />
    <path
       style="fill: none; fill-opacity:0; stroke-width: 0.02; stroke: #494936"
       d="M 52.0204 209.069 L 59.6572,202 L 128.726,202 L 121.089,209.069 L 52.0204,209.069"
       id="path38" />
    <path
       style="fill: #b7b79d"
       d="M 52.0204 209.069 L 121.642,209.069 L 121.642,264.03 L 52.0204,264.03 L 52.0204,209.069z"
       id="path40" />
    <path
       style="fill: none; fill-opacity:0; stroke-width: 0.02; stroke: #494936"
       d="M 52.0204 209.069 L 121.611,209.069 L 121.611,264.015 L 52.0204,264.015 L 52.0204,209.069"
       id="path42" />
    <path
       style="fill: #ffffff"
       d="M 58.0011 216.124 L 115.646,216.124 L 115.646,258.586 L 58.0011,258.586 L 58.0011,216.124z"
       id="path44" />
    <path
       style="fill: none; fill-opacity:0; stroke-width: 0.02; stroke: #494936"
       d="M 58.0011 216.124 L 115.646,216.124 L 115.646,258.571 L 58.0011,258.571 L 58.0011,216.124"
       id="path46" />
    <path
       style="fill: #7a7a5a"
       d="M 121.089 263.509 L 128.726,255.887 L 128.726,202 L 121.089,209.069 L 121.089,263.509z"
       id="path48" />
    <path
       style="fill: none; fill-opacity:0; stroke-width: 0.02; stroke: #494936"
       d="M 121.089 263.509 L 128.726,255.887 L 128.726,202 L 121.089,209.069 L 121.089,263.509"
       id="path50" />
  </g>
  <g
     id="g52">
    <path
       style="fill: #b7b796"
       d="M 521.397 309.802 L 577.717,309.802 L 577.717,189.696 L 521.397,189.696 L 521.397,309.802z"
       id="path54" />
    <path
       style="fill: none; fill-opacity:0; stroke-width: 0.02; stroke: #000000"
       d="M 521.397 309.802 L 577.717,309.802 L 577.717,189.696 L 521.397,189.696 L 521.397,309.802"
       id="path56" />
    <path
       style="fill: none; fill-opacity:0; stroke-width: 0.2; stroke: #494936"
       d="M 521.397 309.802 L 577.717,309.802 L 577.717,189.696 L 521.397,189.696 L 521.397,309.802"
       id="path58" />
    <path
       style="fill: #c9c9b6"
       d="M 521.397 189.696 L 532.157,179.004 L 586.459,179.004 L 577.719,189.696 L 521.397,189.696z"
       id="path60" />
    <path
       style="fill: none; fill-opacity:0; stroke-width: 0.02; stroke: #000000"
       d="M 521.397 189.696 L 532.157,179.004 L 586.459,179.004 L 577.719,189.696 L 521.397,189.696"
       id="path62" />
    <path
       style="fill: none; fill-opacity:0; stroke-width: 0.2; stroke: #494936"
       d="M 521.397 189.696 L 532.157,179.004 L 586.459,179.004 L 577.719,189.696 L 521.397,189.696"
       id="path64" />
    <path
       style="fill: #7a7a5a"
       d="M 577.715 309.802 L 586.455,293.151 L 586.455,179 L 577.715,189.693 L 577.715,309.798 L 577.715,309.802z"
       id="path66" />
    <path
       style="fill: none; fill-opacity:0; stroke-width: 0.02; stroke: #000000"
       d="M 577.715 309.802 L 586.455,293.151 L 586.455,179 L 577.715,189.693 L 577.715,309.798 L 577.715,309.802"
       id="path68" />
    <path
       style="fill: none; fill-opacity:0; stroke-width: 0.2; stroke: #494936"
       d="M 577.715 309.802 L 586.455,293.151 L 586.455,179 L 577.715,189.693 L 577.715,309.798"
       id="path70" />
    <path
       style="fill: #b7b796"
       d="M 582.198 315.165 L 577.719,309.802 L 521.397,309.802 L 515.996,315.165 L 582.198,315.165 L 582.198,315.165z"
       id="path72" />
    <path
       style="fill: none; fill-opacity:0; stroke-width: 0.02; stroke: #000000"
       d="M 582.198 315.165 L 577.719,309.802 L 521.397,309.802 L 515.996,315.165 L 582.198,315.165 L 582.198,315.165"
       id="path74" />
    <path
       style="fill: none; fill-opacity:0; stroke-width: 0.2; stroke: #494936"
       d="M 582.198 315.165 L 577.719,309.802 L 521.397,309.802 L 515.996,315.165 L 582.198,315.165"
       id="path76" />
    <path
       style="fill: #b7b796"
       d="M 582.198 315.165 L 590.908,296.533 L 586.455,293.151 L 577.715,309.802 L 582.194,315.165 L 582.198,315.165z"
       id="path78" />
    <path
       style="fill: none; fill-opacity:0; stroke-width: 0.02; stroke: #000000"
       d="M 582.198 315.165 L 590.908,296.533 L 586.455,293.151 L 577.715,309.802 L 582.194,315.165 L 582.198,315.165"
       id="path80" />
    <path
       style="fill: none; fill-opacity:0; stroke-width: 0.2; stroke: #494936"
       d="M 582.198 315.165 L 590.908,296.533 L 586.455,293.151 L 577.715,309.802 L 582.194,315.165"
       id="path82" />
    <path
       style="fill: #b7b796"
       d="M 577.715 309.802 L 521.393,309.802 L 577.715,309.802z"
       id="path84" />
    <path
       style="fill: none; fill-opacity:0; stroke-width: 0.2; stroke: #494936"
       d="M 577.715 309.802 L 521.393,309.802"
       id="path86" />
    <path
       style="fill: #b7b796"
       d="M 586.455 293.151 L 577.715,309.802 L 586.455,293.151z"
       id="path88" />
    <path
       style="fill: none; fill-opacity:0; stroke-width: 0.2; stroke: #494936"
       d="M 586.455 293.151 L 577.715,309.802"
       id="path90" />
    <path
       style="fill: #b7b796"
       d="M 521.423 195.236 L 577.493,195.236 L 521.423,195.236z"
       id="path92" />
    <path
       style="fill: none; fill-opacity:0; stroke-width: 0.2; stroke: #494936"
       d="M 521.423 195.236 L 577.493,195.236"
       id="path94" />
    <path
       style="fill: #b7b796"
       d="M 521.374 195.917 L 577.444,195.917 L 521.374,195.917z"
       id="path96" />
    <path
       style="fill: none; fill-opacity:0; stroke-width: 0.2; stroke: #494936"
       d="M 521.374 195.917 L 577.444,195.917"
       id="path98" />
    <path
       style="fill: #b7b796"
       d="M 566.044 210.292 L 525.18,210.292 L 525.18,214.053 L 532.733,214.053 L 566.044,210.292z"
       id="path100" />
    <path
       style="fill: none; fill-opacity:0; stroke-width: 0.2; stroke: #494936"
       d="M 566.044 210.292 L 525.18,210.292 L 525.18,214.053 L 532.733,214.053"
       id="path102" />
    <path
       style="fill: #b7b796"
       d="M 566.044 217.265 L 525.18,217.265 L 525.18,221.026 L 532.733,221.026 L 566.044,217.265z"
       id="path104" />
    <path
       style="fill: none; fill-opacity:0; stroke-width: 0.2; stroke: #494936"
       d="M 566.044 217.265 L 525.18,217.265 L 525.18,221.026 L 532.733,221.026"
       id="path106" />
    <path
       style="fill: #b7b796"
       d="M 566.044 224.242 L 525.18,224.242 L 525.18,228.003 L 532.733,228.003 L 566.044,224.242z"
       id="path108" />
    <path
       style="fill: none; fill-opacity:0; stroke-width: 0.2; stroke: #494936"
       d="M 566.044 224.242 L 525.18,224.242 L 525.18,228.003 L 532.733,228.003"
       id="path110" />
    <path
       style="fill: #b7b796"
       d="M 566.044 231.215 L 525.18,231.215 L 525.18,234.976 L 532.733,234.976 L 566.044,231.215z"
       id="path112" />
    <path
       style="fill: none; fill-opacity:0; stroke-width: 0.2; stroke: #494936"
       d="M 566.044 231.215 L 525.18,231.215 L 525.18,234.976 L 532.733,234.976"
       id="path114" />
    <path
       style="fill: #b7b796"
       d="M 566.044 238.191 L 525.18,238.191 L 525.18,241.952 L 532.733,241.952 L 566.044,238.191z"
       id="path116" />
    <path
       style="fill: none; fill-opacity:0; stroke-width: 0.2; stroke: #494936"
       d="M 566.044 238.191 L 525.18,238.191 L 525.18,241.952 L 532.733,241.952"
       id="path118" />
    <path
       style="fill: #b7b796"
       d="M 566.044 245.164 L 525.18,245.164 L 525.18,248.925 L 532.733,248.925 L 566.044,245.164z"
       id="path120" />
    <path
       style="fill: none; fill-opacity:0; stroke-width: 0.2; stroke: #494936"
       d="M 566.044 245.164 L 525.18,245.164 L 525.18,248.925 L 532.733,248.925"
       id="path122" />
    <path
       style="fill: #b7b796"
       d="M 566.044 252.137 L 525.18,252.137 L 525.18,255.898 L 532.733,255.898 L 566.044,252.137z"
       id="path124" />
    <path
       style="fill: none; fill-opacity:0; stroke-width: 0.2; stroke: #494936"
       d="M 566.044 252.137 L 525.18,252.137 L 525.18,255.898 L 532.733,255.898"
       id="path126" />
    <path
       style="fill: #b7b796"
       d="M 566.044 259.114 L 525.18,259.114 L 525.18,262.875 L 532.733,262.875 L 566.044,259.114z"
       id="path128" />
    <path
       style="fill: none; fill-opacity:0; stroke-width: 0.2; stroke: #494936"
       d="M 566.044 259.114 L 525.18,259.114 L 525.18,262.875 L 532.733,262.875"
       id="path130" />
    <path
       style="fill: #b7b796"
       d="M 566.044 266.087 L 525.18,266.087 L 525.18,269.848 L 532.733,269.848 L 566.044,266.087z"
       id="path132" />
    <path
       style="fill: none; fill-opacity:0; stroke-width: 0.2; stroke: #494936"
       d="M 566.044 266.087 L 525.18,266.087 L 525.18,269.848 L 532.733,269.848"
       id="path134" />
    <path
       style="fill: #b7b796"
       d="M 566.044 273.064 L 525.18,273.064 L 525.18,276.825 L 532.733,276.825 L 566.044,273.064z"
       id="path136" />
    <path
       style="fill: none; fill-opacity:0; stroke-width: 0.2; stroke: #494936"
       d="M 566.044 273.064 L 525.18,273.064 L 525.18,276.825 L 532.733,276.825"
       id="path138" />
    <path
       style="fill: #b7b796"
       d="M 566.044 280.037 L 525.18,280.037 L 525.18,283.798 L 532.733,283.798 L 566.044,280.037z"
       id="path140" />
    <path
       style="fill: none; fill-opacity:0; stroke-width: 0.2; stroke: #494936"
       d="M 566.044 280.037 L 525.18,280.037 L 525.18,283.798 L 532.733,283.798"
       id="path142" />
    <path
       style="fill: #b7b796"
       d="M 566.044 287.01 L 525.18,287.01 L 525.18,290.771 L 532.733,290.771 L 566.044,287.01z"
       id="path144" />
    <path
       style="fill: none; fill-opacity:0; stroke-width: 0.2; stroke: #494936"
       d="M 566.044 287.01 L 525.18,287.01 L 525.18,290.771 L 532.733,290.771"
       id="path146" />
    <path
       style="fill: #b7b796"
       d="M 566.044 293.986 L 525.18,293.986 L 525.18,297.747 L 532.733,297.747 L 566.044,293.986z"
       id="path148" />
    <path
       style="fill: none; fill-opacity:0; stroke-width: 0.2; stroke: #494936"
       d="M 566.044 293.986 L 525.18,293.986 L 525.18,297.747 L 532.733,297.747"
       id="path150" />
    <path
       style="fill: #b7b796"
       d="M 566.044 300.959 L 525.18,300.959 L 525.18,304.72 L 532.733,304.72 L 566.044,300.959z"
       id="path152" />
    <path
       style="fill: none; fill-opacity:0; stroke-width: 0.2; stroke: #494936"
       d="M 566.044 300.959 L 525.18,300.959 L 525.18,304.72 L 532.733,304.72"
       id="path154" />
  </g>
  <g
     id="g156">
    <line
       style="fill: none; fill-opacity:0; stroke-width: 2; stroke: #000000"
       x1="161"
       y1="243"
       x2="492.694"
       y2="243"
       id="line158" />
    <polyline
       style="fill: none; fill-opacity:0; stroke-width: 2; stroke: #000000"
       points="484.93,248 494.93,243 484.93,238 "
       id="polyline160" />
  </g>
  <text
     style="font-size:16.93330002px;font-style:normal;font-weight:normal;text-anchor:start;fill:#000000;font-family:sanserif"
     x="76.109634"
     y="475.50208"
     id="text162"
     transform="matrix(0.91354546,-0.40673664,0.40673664,0.91354546,0,0)">
    <tspan
       x="76.109634"
       y="475.50208"
       id="tspan164">1. GET page.php</tspan>
  </text>
  <text
     style="fill: #000000;text-anchor:start;font-size:12.8;font-family:sanserif;font-style:normal;font-weight:normal"
     x="569"
     y="180"
     id="text166">
    <tspan
       x="569"
       y="180"
       id="tspan168" />
  </text>
  <text
     style="font-size:16.93330002px;font-style:normal;font-weight:normal;text-anchor:middle;fill:#000000;font-family:sanserif"
     x="150.52237"
     y="503.37082"
     id="text170"
     transform="matrix(0.91354546,-0.40673664,0.40673664,0.91354546,0,0)">
    <tspan
       x="150.52237"
       y="503.37082"
       id="tspan172">1. page.php</tspan>
    <tspan
       x="150.52237"
       y="524.53778"
       id="tspan174">Set-Cookie: PHPSESSID=d9qX4zKbg35</tspan>
  </text>
  <text
     style="fill: #000000;text-anchor:start;font-size:16.9333;font-family:sanserif;font-style:normal;font-weight:normal"
     x="62"
     y="325"
     id="text176">
    <tspan
       x="62"
       y="325"
       id="tspan178">Victim</tspan>
  </text>
  <text
     style="fill: #000000;text-anchor:start;font-size:16.9333;font-family:sanserif;font-style:normal;font-weight:normal"
     x="510"
     y="338.65"
     id="text180">
    <tspan
       x="510"
       y="338.65"
       id="tspan182">AppServer</tspan>
  </text>
  <text
     style="fill: #000000;text-anchor:start;font-size:12.8;font-family:sanserif;font-style:normal;font-weight:normal"
     x="379.166"
     y="431"
     id="text184">
    <tspan
       x="379.166"
       y="431"
       id="tspan186" />
  </text>
  <g
     id="g188">
    <path
       style="fill: #b7b79d"
       d="M 38.8908 518.447 L 136.222,518.447 L 136.222,536.435 L 38.8908,536.435 L 38.8908,518.447z"
       id="path190" />
    <path
       style="fill: none; fill-opacity:0; stroke-width: 0.02; stroke: #494936"
       d="M 38.8908 518.447 L 136.222,518.447 L 136.222,536.435 L 38.8908,536.435 L 38.8908,518.447"
       id="path192" />
    <path
       style="fill: #c9c9b6"
       d="M 38.8908 518.447 L 49.2113,508.663 L 146.543,508.663 L 136.222,518.447 L 38.8908,518.447z"
       id="path194" />
    <path
       style="fill: none; fill-opacity:0; stroke-width: 0.02; stroke: #494936"
       d="M 38.8908 518.447 L 49.2113,508.663 L 146.543,508.663 L 136.222,518.447 L 38.8908,518.447"
       id="path196" />
    <path
       style="fill: none; fill-opacity:0; stroke-width: 2.12; stroke: #000000"
       d="M 130.778 526.636 L 107.423,526.636"
       id="path198" />
    <path
       style="fill: #7a7a5a"
       d="M 136.222 536.435 L 146.543,526.084 L 146.543,508.663 L 136.222,518.447 L 136.222,536.435z"
       id="path200" />
    <path
       style="fill: none; fill-opacity:0; stroke-width: 0.02; stroke: #494936"
       d="M 136.222 536.435 L 146.543,526.084 L 146.543,508.663 L 136.222,518.447 L 136.222,536.435"
       id="path202" />
    <path
       style="fill: #c9c9b6"
       d="M 39.4429 547.844 L 50.3001,534.242 L 125.35,534.242 L 114.493,547.844 L 39.4429,547.844z"
       id="path204" />
    <path
       style="fill: none; fill-opacity:0; stroke-width: 0.02; stroke: #494936"
       d="M 39.4429 547.844 L 50.3001,534.242 L 125.35,534.242 L 114.493,547.844 L 39.4429,547.844"
       id="path206" />
    <path
       style="fill: #7a7a5a"
       d="M 114.493 550.558 L 125.35,539.149 L 125.35,534.242 L 114.493,547.844 L 114.493,550.558z"
       id="path208" />
    <path
       style="fill: none; fill-opacity:0; stroke-width: 0.02; stroke: #494936"
       d="M 114.493 550.558 L 125.35,539.149 L 125.35,534.242 L 114.493,547.844 L 114.493,550.558"
       id="path210" />
    <path
       style="fill: #b7b79d"
       d="M 39.4429 547.844 L 114.493,547.844 L 114.493,550.558 L 39.4429,550.558 L 39.4429,547.844z"
       id="path212" />
    <path
       style="fill: none; fill-opacity:0; stroke-width: 0.02; stroke: #494936"
       d="M 39.4429 547.844 L 114.493,547.844 L 114.493,550.558 L 39.4429,550.558 L 39.4429,547.844"
       id="path214" />
    <path
       style="fill: #000000"
       d="M 53.5664 516.284 L 61.74,508.663 L 130.778,508.663 L 123.188,516.284 L 53.5664,516.284z"
       id="path216" />
    <path
       style="fill: none; fill-opacity:0; stroke-width: 0.02; stroke: #000000"
       d="M 53.5664 516.284 L 61.74,508.663 L 130.778,508.663 L 123.188,516.284 L 53.5664,516.284"
       id="path218" />
    <path
       style="fill: #c9c9b6"
       d="M 53.0144 460.219 L 60.6512,453.15 L 129.72,453.15 L 122.083,460.219 L 53.0144,460.219z"
       id="path220" />
    <path
       style="fill: none; fill-opacity:0; stroke-width: 0.02; stroke: #494936"
       d="M 53.0144 460.219 L 60.6512,453.15 L 129.72,453.15 L 122.083,460.219 L 53.0144,460.219"
       id="path222" />
    <path
       style="fill: #b7b79d"
       d="M 53.0144 460.219 L 122.636,460.219 L 122.636,515.18 L 53.0144,515.18 L 53.0144,460.219z"
       id="path224" />
    <path
       style="fill: none; fill-opacity:0; stroke-width: 0.02; stroke: #494936"
       d="M 53.0144 460.219 L 122.605,460.219 L 122.605,515.165 L 53.0144,515.165 L 53.0144,460.219"
       id="path226" />
    <path
       style="fill: #ffffff"
       d="M 58.9951 467.274 L 116.64,467.274 L 116.64,509.736 L 58.9951,509.736 L 58.9951,467.274z"
       id="path228" />
    <path
       style="fill: none; fill-opacity:0; stroke-width: 0.02; stroke: #494936"
       d="M 58.9951 467.274 L 116.64,467.274 L 116.64,509.721 L 58.9951,509.721 L 58.9951,467.274"
       id="path230" />
    <path
       style="fill: #7a7a5a"
       d="M 122.083 514.659 L 129.72,507.037 L 129.72,453.15 L 122.083,460.219 L 122.083,514.659z"
       id="path232" />
    <path
       style="fill: none; fill-opacity:0; stroke-width: 0.02; stroke: #494936"
       d="M 122.083 514.659 L 129.72,507.037 L 129.72,453.15 L 122.083,460.219 L 122.083,514.659"
       id="path234" />
  </g>
  <text
     style="fill: #000000;text-anchor:start;font-size:16.9333;font-family:sanserif;font-style:normal;font-weight:normal"
     x="52.994"
     y="577.15"
     id="text236">
    <tspan
       x="52.994"
       y="577.15"
       id="tspan238">Attacker</tspan>
  </text>
  <text
     style="fill: #000000;text-anchor:start;font-size:12.8;font-family:sanserif;font-style:normal;font-weight:normal"
     x="84"
     y="332"
     id="text240">
    <tspan
       x="84"
       y="332"
       id="tspan242" />
  </text>
  <g
     id="g244">
    <line
       style="fill: none; fill-opacity:0; stroke-width: 2; stroke-dasharray: 4; stroke: #000000"
       x1="93"
       y1="447"
       x2="93"
       y2="337.472"
       id="line246" />
    <polyline
       style="fill: none; fill-opacity:0; stroke-width: 2; stroke: #000000"
       points="98,345.236 93,335.236 88,345.236 "
       id="polyline248" />
  </g>
  <text
     style="fill: #000000;text-anchor:start;font-size:12.8;font-family:sanserif;font-style:normal;font-weight:normal"
     x="219"
     y="357"
     id="text250">
    <tspan
       x="219"
       y="357"
       id="tspan252" />
  </text>
  <text
     style="fill: #000000;text-anchor:start;font-size:16.9333;font-family:sanserif;font-style:normal;font-weight:normal"
     x="100"
     y="374.15"
     id="text254">
    <tspan
       x="100"
       y="374.15"
       id="tspan256">2. Inject cookie</tspan>
  </text>
  <g
     id="g258">
    <line
       style="fill: none; fill-opacity:0; stroke-width: 2; stroke: #000000"
       x1="155"
       y1="455"
       x2="486.912"
       y2="307.813"
       id="line260" />
    <polyline
       style="fill: none; fill-opacity:0; stroke-width: 2; stroke: #000000"
       points="481.841,315.531 488.956,306.906 477.788,306.39 "
       id="polyline262" />
  </g>
  <text
     style="fill: #000000;text-anchor:middle;font-size:16.9333;font-family:sanserif;font-style:normal;font-weight:normal"
     x="325"
     y="238"
     id="text264">
    <tspan
       x="325"
       y="238"
       id="tspan266">3. GET login.php?un=user&amp;pwd=123</tspan>
    <tspan
       x="325"
       y="259.167"
       id="tspan268">Cookie: PHPSESSID=d9qX4zKbg35</tspan>
  </text>
  <g
     id="g270"
     transform="matrix(0.99998629,-0.00523596,0.00523596,0.99998629,-6.6507695,-1.596767)">
    <line
       style="fill:none;stroke:#000000;stroke-width:2"
       x1="500.16599"
       y1="340"
       x2="177.24899"
       y2="484.177"
       id="line272" />
    <polyline
       style="fill:none;stroke:#000000;stroke-width:2"
       points="182.3,476.446 175.207,485.088 186.377,485.577 "
       id="polyline274" />
  </g>
  <text
     style="fill: #000000;text-anchor:start;font-size:12.8;font-family:sanserif;font-style:normal;font-weight:normal"
     x="469.166"
     y="458"
     id="text276">
    <tspan
       x="469.166"
       y="458"
       id="tspan278" />
  </text>
  <g
     id="g280"
     transform="matrix(0.99998629,-0.00523596,0.00523596,0.99998629,-10.227038,-7.0569501)">
    <line
       style="fill:none;stroke:#000000;stroke-width:2"
       x1="206.166"
       y1="523"
       x2="527.06799"
       y2="382.79099"
       id="line282" />
    <polyline
       style="fill:none;stroke:#000000;stroke-width:2"
       points="521.955,390.481 529.117,381.895 517.952,381.317 "
       id="polyline284" />
  </g>
  <text
     style="font-size:16.93330002px;font-style:normal;font-weight:normal;text-anchor:middle;fill:#000000;font-family:sanserif"
     x="152.77945"
     y="546.37463"
     id="text286"
     transform="matrix(0.91354546,-0.40673664,0.40673664,0.91354546,0,0)">
    <tspan
       x="152.77945"
       y="546.37463"
       id="tspan288">4. GET restricted.php</tspan>
    <tspan
       x="152.77945"
       y="567.54169"
       id="tspan290">Cookie: PHPSESSID=d9qX4zKbg35</tspan>
  </text>
</svg>
